<svg xmlns="http://www.w3.org/2000/svg" xmlns:xlink="http://www.w3.org/1999/xlink" version="1.1" x="0px" y="0px" viewBox="0 0 100 125" enable-background="new 0 0 100 100" xml:space="preserve"><path d="M31.172,11.249h38.301c0.109,0.201,0.173,0.341,0.173,0.341s3.073,6.71,3.256,7.132c0.183,0.423-0.004,0.789-0.378,0.789  c-0.185,0-44.218,0-44.403,0c-0.374,0-0.561-0.366-0.378-0.789s3.256-7.132,3.256-7.132S31.063,11.449,31.172,11.249z   M81.811,11.248H71.683c0.44,0.961,1.366,2.985,2.085,4.56h6.082V89.95H20.065V15.809h6.812c0.721-1.58,1.651-3.611,2.085-4.56  H18.191c-1.764,0-3.191,1.429-3.191,3.19v77.373C15,93.571,16.427,95,18.191,95H81.81c1.761,0,3.19-1.429,3.19-3.189V14.438  C85,12.678,83.571,11.248,81.811,11.248z M72.524,19.51c-0.185,0-44.218,0-44.403,0c-0.374,0-0.561-0.366-0.378-0.789  s3.256-7.132,3.256-7.132s0.892-1.994,1.994-1.994h8.739c1.27,0,2.298-1.028,2.298-2.298V6.994C44.029,5.892,44.921,5,46.023,5H54.9  c1.1,0,1.994,0.892,1.994,1.994v0.304c0,1.27,1.028,2.298,2.296,2.298h8.463c1.102,0,1.994,1.994,1.994,1.994  s3.073,6.71,3.256,7.132C73.085,19.144,72.898,19.51,72.524,19.51z M48.964,7.689c0,0.828,0.672,1.497,1.499,1.497  c0.825,0,1.495-0.67,1.495-1.497s-0.67-1.497-1.495-1.497C49.635,6.192,48.964,6.862,48.964,7.689z"/><rect x="27.584" y="30.707" width="45.188" height="1.988"/><rect x="27.584" y="35.212" width="45.188" height="1.988"/><rect x="27.584" y="71.597" width="45.188" height="1.988"/><rect x="27.584" y="76.102" width="45.188" height="1.988"/><rect x="27.584" y="51.153" width="45.188" height="1.988"/><rect x="27.584" y="55.656" width="45.188" height="1.988"/><text x="0" y="115" fill="#000000" font-size="5px" font-weight="bold" font-family="'Helvetica Neue', Helvetica, Arial-Unicode, Arial, Sans-serif">Created by DEMOGRAPH</text><text x="0" y="120" fill="#000000" font-size="5px" font-weight="bold" font-family="'Helvetica Neue', Helvetica, Arial-Unicode, Arial, Sans-serif">from the Noun Project</text></svg>